<?xml version="1.0" standalone="no"?>
<!DOCTYPE svg PUBLIC "-//W3C//DTD SVG 20010904//EN" "http://www.w3.org/TR/2001/REC-SVG-20010904/DTD/svg10.dtd">
<svg version="1.0" xmlns="http://www.w3.org/2000/svg"
    width="128.000000pt" height="128.000000pt" viewBox="0 0 128.000000 128.000000"
    preserveAspectRatio="xMidYMid meet">

    <g transform="translate(0.000000,128.000000) scale(0.100000,-0.100000)"
        fill="#ffffff" stroke="none">
        <path
            d="M520 1136 c0 -3 17 -13 38 -21 47 -20 100 -70 118 -112 20 -46 17
-120 -6 -167 -11 -23 -64 -89 -119 -148 -109 -118 -142 -175 -149 -254 -12
-139 87 -240 270 -278 108 -22 119 -20 67 12 -96 61 -134 139 -127 256 6 90
40 168 132 300 75 108 96 153 96 211 0 80 -63 141 -179 175 -75 21 -141 33
-141 26z" />
        <path
            d="M533 959 c-18 -27 -28 -58 -31 -93 -4 -53 12 -126 28 -126 4 0 22 16
39 36 l32 36 -31 34 c-34 39 -39 78 -15 124 22 43 10 37 -22 -11z" />
        <path
            d="M722 627 l-32 -53 40 -42 c27 -29 45 -61 56 -100 16 -52 16 -63 2
-132 -9 -41 -14 -76 -13 -78 1 -2 19 19 39 46 88 120 88 231 0 360 -20 28 -42
52 -48 52 -7 0 -26 -24 -44 -53z" />
    </g>
</svg>