<?xml version="1.0" standalone="no"?>
<svg version="1.0" xmlns="http://www.w3.org/2000/svg" viewBox="0 0 50 50" width="50px" height="50px">
    <g fill="#ffffff">
        <path
            d="M 25 4 L 24.646484 5.4433594 C 24.375484 6.5493594 23.802234 7.5584688 22.990234 8.3554688 L 21.152344 10.160156 L 12.761719 16.050781 C 11.764477 16.751018 10.999322 17.658339 10.476562 18.671875 L 6.3242188 19.398438 C 6.0492187 19.446437 5.7692344 19.470656 5.4902344 19.472656 L 4.1914062 19.480469 C 3.4414062 19.490469 2.6907813 19.290625 2.0507812 18.890625 L 1.1992188 18.380859 L 1.7128906 19.226562 C 2.1058906 19.874562 2.3097344 20.618 2.3027344 21.375 L 2.2890625 22.662109 C 2.2860625 22.945109 2.2618906 23.228813 2.2128906 23.507812 L 1.109375 29.806641 C 0.72114068 32.024154 1.9153382 34.143146 3.875 35.039062 L 3.8457031 35.033203 C 3.8707117 35.048757 3.937747 35.071931 3.9746094 35.089844 C 4.0182055 35.108555 4.0591948 35.130949 4.1035156 35.148438 C 4.6289512 35.369087 5.7098809 35.689134 6.4121094 35.833984 C 7.7611094 36.112984 9.2678437 36.220281 10.589844 36.613281 C 11.790189 36.970737 12.972541 37.462705 14.109375 38.054688 C 13.944279 38.11783 13.772517 38.17115 13.609375 38.234375 C 13.225524 38.383134 12.810627 38.527957 12.388672 38.664062 C 11.561583 38.308461 10.740816 38.050149 9.765625 37.826172 C 8.609625 37.560172 5.38825 38.027547 4.90625 37.435547 C 4.56225 37.013547 4.3565 37.123422 4.4375 37.357422 C 5.0945 39.250422 6.5779219 39.795906 8.9199219 39.753906 C 9.8824005 39.736477 10.999076 39.34543 11.933594 39.089844 C 12.555541 39.387639 13.196262 39.745275 13.873047 40.171875 C 14.027047 40.268875 14.038875 40.155125 14.171875 40.078125 C 14.782131 39.725384 15.479563 39.481811 16.208984 39.304688 C 17.119084 39.917741 17.981686 40.59159 18.769531 41.320312 C 18.854531 41.399313 19.096297 41.061906 19.154297 41.003906 C 20.520872 39.614169 22.886187 40.605747 24.511719 42.072266 C 24.14748 42.460247 23.841602 42.859788 23.65625 43.302734 C 23.29425 44.168734 23.420859 44.898406 23.755859 45.691406 C 24.130859 46.579406 24.874406 46.938047 24.941406 48.623047 C 24.949406 48.820047 25.211406 48.843078 25.191406 48.705078 C 25.079406 47.928078 25.580406 47.1135 25.941406 46.4375 C 26.278406 45.8075 26.469594 45.311906 26.558594 44.753906 C 26.686594 43.953906 26.486813 43.151547 25.507812 42.185547 C 25.40299 42.081953 25.292922 41.990021 25.185547 41.892578 C 25.753286 41.381852 26.335944 40.931418 26.769531 40.570312 C 28.176934 40.959471 29.603471 41.341132 30.703125 41.671875 C 30.809125 41.703875 30.943234 41.565203 31.115234 41.408203 C 32.307909 40.322504 33.600281 39.325787 34.990234 38.503906 C 35.410817 38.733911 35.866466 39.005355 36.375 39.34375 C 36.525 39.44375 36.59275 39.264125 36.71875 39.203125 C 37.271875 38.937477 37.859091 38.698459 38.457031 38.482422 C 39.296802 38.871435 40.145017 39.251287 40.890625 39.5 C 42.865625 40.158 44.5645 39.03225 45.5625 37.28125 C 45.6005 37.21525 45.384953 37.01025 45.251953 37.28125 C 44.782953 38.23425 42.892797 36.936703 40.591797 37.470703 C 39.95599 37.61814 39.388663 37.790374 38.888672 37.966797 C 38.422713 37.747184 37.932257 37.53565 37.421875 37.316406 C 38.000154 37.088576 38.588626 36.884409 39.197266 36.730469 C 40.700703 36.350533 42.214462 36.020202 43.716797 35.634766 L 43.8125 35.632812 L 45.005859 35.408203 C 47.615859 34.919203 49.346672 32.422641 48.888672 29.806641 L 47.785156 23.509766 C 47.736156 23.230766 47.711984 22.947063 47.708984 22.664062 L 47.697266 21.376953 C 47.690266 20.619953 47.894109 19.874562 48.287109 19.226562 L 48.798828 18.382812 L 48.798828 18.380859 L 47.949219 18.890625 C 47.309219 19.290625 46.558594 19.490469 45.808594 19.480469 L 44.509766 19.472656 C 44.230766 19.470656 43.950781 19.446437 43.675781 19.398438 L 39.527344 18.671875 C 39.004576 17.657865 38.237755 16.751213 37.240234 16.050781 L 28.849609 10.160156 L 27.011719 8.3554688 C 26.198719 7.5574687 25.625469 6.5493594 25.355469 5.4433594 L 25 4 z M 25 12.513672 L 25.337891 13.015625 C 25.774891 13.665625 26.336281 14.224203 26.988281 14.658203 L 29 16 L 32.652344 18.240234 C 34.035344 19.088234 35.318516 20.088656 36.478516 21.222656 L 37.140625 21.869141 L 37.683594 22.734375 C 38.615594 24.221375 38.595859 26.116031 37.630859 27.582031 L 36.300781 29.601562 L 38.037109 27.640625 L 39.054688 26.154297 C 39.665419 26.279333 40.293898 26.267971 40.890625 26.089844 L 41.060547 26.039062 L 41 26.240234 C 40.82 26.900234 40.810234 27.599531 40.990234 28.269531 L 41.220703 29.099609 L 41.539062 30.330078 L 41.630859 30.710938 C 41.94617 32.036674 41.465611 33.363196 40.503906 34.208984 C 39.072781 35.201185 37.53109 34.861973 37.03125 34.578125 L 36.75 34.875 C 37.47449 35.016304 38.224608 35.043347 38.988281 35.011719 L 38.929688 35.029297 L 39.359375 35.003906 C 39.406823 35.000368 39.452415 35.004129 39.5 35 L 39.507812 34.994141 L 40.060547 34.960938 C 42.170547 34.570937 43.569219 32.549688 43.199219 30.429688 L 42.619141 27.140625 C 42.589141 26.960625 42.570313 26.779844 42.570312 26.589844 L 42.560547 25.759766 C 42.560547 25.269766 42.689453 24.789141 42.939453 24.369141 L 43.269531 23.830078 L 42.720703 24.160156 C 42.300703 24.410156 41.829844 24.539062 41.339844 24.539062 L 40.509766 24.529297 C 40.329766 24.529297 40.150703 24.520469 39.970703 24.480469 L 39.910156 24.470703 C 40.260044 23.493984 40.395253 22.470092 40.318359 21.464844 L 40.640625 21.560547 L 41.919922 21.910156 C 42.949922 22.200156 44.040547 22.190391 45.060547 21.900391 L 45.369141 21.810547 L 45.369141 21.8125 L 45.283203 22.115234 C 44.990203 23.141234 44.985578 24.228813 45.267578 25.257812 L 45.619141 26.542969 L 46.572266 29.734375 L 46.628906 30.019531 C 47.102906 32.361531 45.930719 34.564375 43.636719 35.234375 L 41.785156 35.667969 L 42.095703 35.662109 C 40.479503 36.032682 38.863198 36.399011 37.314453 36.992188 C 37.201894 37.035286 37.098047 37.082482 36.988281 37.126953 C 36.911734 37.095761 36.842977 37.061771 36.765625 37.03125 C 36.330913 36.859762 35.898961 36.673343 35.472656 36.492188 C 35.945519 35.945468 36.314788 35.354135 36.544922 34.75 C 36.724922 34.279 36.299797 33.873625 36.216797 34.140625 L 35.984375 34.796875 C 35.708227 35.365779 35.384388 35.861963 35.03125 36.310547 C 33.588749 35.704049 32.306668 35.226463 31.664062 35.646484 C 31.845549 35.226115 31.924922 34.930937 32.033203 34.28125 C 32.040203 34.24125 32.105328 33.958125 31.986328 33.953125 C 31.595328 33.937125 31.002578 34.4065 30.767578 34.5625 C 31.000578 33.9685 30.964031 34.282297 31.082031 33.654297 C 31.124031 33.433297 31.181187 33.049234 30.867188 32.990234 C 30.555187 32.931234 30.257094 33.088625 29.996094 33.265625 C 29.860094 33.358625 29.93425 33.3985 30.03125 33.3125 L 30.390625 33.375 C 30.745625 33.47 30.61425 34.26225 30.53125 34.53125 C 30.461581 34.75817 30.360197 35.016029 30.263672 35.267578 C 30.243865 35.217656 30.223648 35.167241 30.1875 35.138672 L 30.125 35.09375 C 28.578 34.93775 27.578641 35.718094 26.681641 36.371094 C 26.346641 36.615094 26.7705 36.664375 27.0625 36.609375 C 28.2345 36.390375 29.43775 36.46875 30.09375 37.21875 C 30.16175 37.29575 30.248625 37.507047 30.265625 37.623047 C 30.281625 37.732047 30.43225 37.696547 30.40625 37.560547 C 30.141271 36.209801 28.960804 35.875214 27.822266 36.027344 C 28.457783 35.592169 29.312581 35.175552 30.203125 35.732422 C 30.267058 35.772316 30.308673 35.654102 30.310547 35.509766 C 30.339414 35.47799 30.377925 35.442809 30.392578 35.421875 C 30.497578 35.271875 30.710219 35.227984 30.824219 35.083984 C 30.910219 34.973984 31.314453 34.48475 31.564453 34.46875 C 31.550453 35.07975 31.458078 35.456047 31.205078 35.998047 C 31.18321 36.044026 31.28279 36.032048 31.388672 35.988281 C 31.389764 36.006636 31.401669 36.011865 31.427734 35.994141 L 31.75 35.78125 C 32.32148 35.71006 33.497412 36.229088 34.644531 36.761719 C 34.367798 37.058744 34.071872 37.322642 33.757812 37.556641 C 32.970822 37.208451 32.424319 37.07742 31.828125 37.171875 C 31.430125 37.234875 31.328125 37.578125 31.328125 37.578125 C 31.328125 37.578125 31.92144 37.261773 33.4375 37.798828 C 32.381077 38.487288 31.13774 38.848712 29.748047 38.894531 C 29.283662 38.909733 28.812727 38.87685 28.339844 38.820312 C 28.451311 38.56159 28.509014 38.289535 28.460938 38.001953 C 28.443938 37.901953 28.334938 37.598406 28.210938 37.566406 C 28.107937 37.540406 28.066969 37.901797 28.042969 37.966797 C 27.944713 38.233666 27.816584 38.478989 27.677734 38.716797 C 26.785434 38.548252 25.899947 38.268531 25.0625 37.859375 C 25.7505 37.734375 26.125125 37.671375 26.953125 37.109375 C 26.999125 37.078375 27.109766 36.952156 27.009766 36.910156 C 25.887927 36.431353 24.989481 35.989208 24.1875 35.654297 L 24.1875 35.203125 L 23.59375 35.417969 C 22.094606 34.888413 20.922364 34.945916 19.28125 36.421875 C 19.00525 36.669875 19.287453 36.682719 19.439453 36.636719 C 20.675453 36.260719 22.57875 36.4845 22.84375 37.5625 C 22.87375 37.6845 22.99275 37.57675 22.96875 37.46875 C 22.68775 36.18775 21.108297 36.047 20.029297 36.125 C 21.44608 35.300471 22.17618 35.432006 23.5 35.933594 L 23.5 36.5625 L 24.1875 36.3125 L 24.1875 36.208984 C 24.566593 36.369479 24.944292 36.533298 25.318359 36.703125 C 25.566359 36.817125 26.154297 37.125 26.154297 37.125 C 26.154297 37.125 26.466922 37.375375 24.544922 37.734375 C 24.390922 37.711375 23.341797 37.765625 23.341797 37.765625 C 24.534532 38.338894 25.993387 38.769569 27.501953 38.992188 C 27.274752 39.332487 27.01353 39.645872 26.734375 39.941406 C 24.760841 39.369193 23.041924 38.906044 21.6875 38.654297 C 20.3005 38.396297 18.930812 38.510906 17.632812 38.753906 C 17.324305 38.811896 17.007266 38.858168 16.693359 38.910156 C 16.227341 38.622556 15.761599 38.357593 15.285156 38.113281 C 16.231479 37.85366 17.097971 37.655774 17.484375 37.71875 C 17.769375 37.76575 17.8755 37.71875 17.9375 37.71875 L 17.765625 37.484375 C 17.383625 37.355375 17.385 37.33675 17 37.34375 C 16.205999 37.35963 15.457509 37.576106 14.724609 37.832031 C 14.477949 37.71108 14.235554 37.591924 13.972656 37.466797 C 10.949536 36.027644 9.4683949 35.861477 7.6308594 35.53125 L 6.3632812 35.232422 C 4.0692813 34.562422 2.8951406 32.359578 3.3691406 30.017578 L 3.4277344 29.734375 L 4.3789062 26.541016 L 4.7324219 25.255859 C 5.0144219 24.226859 5.0097969 23.141234 4.7167969 22.115234 L 4.6289062 21.810547 L 4.6308594 21.810547 L 4.9394531 21.900391 C 5.9594531 22.190391 7.0500781 22.200156 8.0800781 21.910156 L 9.359375 21.560547 L 9.6835938 21.464844 C 9.6067255 22.469626 9.7421704 23.492396 10.091797 24.46875 L 10.029297 24.480469 C 9.8492969 24.520469 9.6702344 24.529297 9.4902344 24.529297 L 8.6601562 24.539062 C 8.1701562 24.539062 7.6992969 24.410156 7.2792969 24.160156 L 6.7304688 23.830078 L 7.0605469 24.369141 C 7.3105469 24.789141 7.4394531 25.269766 7.4394531 25.759766 L 7.4296875 26.589844 C 7.4296875 26.779844 7.4108594 26.960625 7.3808594 27.140625 L 6.8007812 30.429688 C 6.4307812 32.549688 7.8294531 34.570937 9.9394531 34.960938 L 10.492188 34.994141 L 10.5 35 C 10.547585 35.004129 10.593177 35.000368 10.640625 35.003906 L 11.070312 35.029297 L 11.011719 35.011719 C 11.775392 35.043347 12.52551 35.016304 13.25 34.875 L 12.96875 34.578125 C 12.46891 34.861973 10.927219 35.201185 9.4960938 34.208984 C 8.5343889 33.363196 8.0538302 32.036674 8.3691406 30.710938 L 8.4609375 30.330078 L 8.7792969 29.099609 L 9.0097656 28.269531 C 9.1897656 27.599531 9.18 26.900234 9 26.240234 L 8.9394531 26.039062 L 9.109375 26.089844 C 9.7067147 26.268154 10.335943 26.279759 10.947266 26.154297 L 11.964844 27.640625 L 13.701172 29.601562 L 12.371094 27.580078 C 11.406094 26.114078 11.385359 24.221375 12.318359 22.734375 L 12.861328 21.869141 L 13.523438 21.220703 C 14.683438 20.087703 15.967609 19.087281 17.349609 18.238281 L 21 16 L 23.011719 14.658203 C 23.663719 14.223203 24.225109 13.665625 24.662109 13.015625 L 25 12.513672 z M 25 15 L 24.765625 15.960938 C 24.585625 16.696938 24.202109 17.366484 23.662109 17.896484 L 22.439453 19.097656 L 16.857422 23.015625 C 14.684422 24.541625 14.143578 27.530656 15.642578 29.722656 L 16.328125 30.724609 L 17.482422 32.029297 L 16.599609 30.685547 C 15.957609 29.710547 15.943453 28.451891 16.564453 27.462891 L 16.925781 26.886719 L 17.365234 26.455078 C 18.137234 25.701078 18.991156 25.036656 19.910156 24.472656 L 22.339844 22.982422 L 23.679688 22.091797 C 24.113688 21.802797 24.486344 21.430047 24.777344 20.998047 L 25 20.662109 L 25.224609 20.996094 C 25.515609 21.429094 25.888266 21.800844 26.322266 22.089844 L 27.662109 22.982422 L 30.091797 24.472656 C 31.011797 25.036656 31.864719 25.701078 32.636719 26.455078 L 33.076172 26.886719 L 33.4375 27.460938 C 34.0575 28.449938 34.043344 29.710547 33.402344 30.685547 L 32.519531 32.027344 L 33.673828 30.724609 L 34.359375 29.722656 C 35.856375 27.531656 35.315578 24.540625 33.142578 23.015625 L 27.560547 19.097656 L 26.337891 17.896484 C 25.796891 17.365484 25.414375 16.695937 25.234375 15.960938 L 25 15 z M 25 22.740234 L 24.853516 23.335938 C 24.741516 23.792938 24.504922 24.208109 24.169922 24.537109 L 23.410156 25.283203 L 19.947266 27.714844 C 18.598266 28.661844 18.261406 30.516953 19.191406 31.876953 L 19.617188 32.498047 L 20.335938 33.306641 L 19.785156 32.472656 C 19.387156 31.867656 19.378672 31.086656 19.763672 30.472656 L 19.988281 30.115234 L 20.261719 29.847656 C 20.740719 29.379656 21.271797 28.967188 21.841797 28.617188 L 23.347656 27.691406 L 24.179688 27.138672 C 24.448687 26.959672 24.679375 26.728938 24.859375 26.460938 L 25 26.253906 L 25.138672 26.460938 C 25.319672 26.728938 25.551312 26.959672 25.820312 27.138672 L 26.650391 27.693359 L 28.158203 28.617188 C 28.729203 28.967188 29.257328 29.381609 29.736328 29.849609 L 30.011719 30.115234 L 30.234375 30.472656 C 30.619375 31.086656 30.610891 31.869609 30.212891 32.474609 L 29.664062 33.308594 L 30.380859 32.498047 L 30.806641 31.876953 C 31.737641 30.515953 31.400734 28.661844 30.052734 27.714844 L 26.589844 25.283203 L 25.830078 24.537109 C 25.495078 24.208109 25.258484 23.791937 25.146484 23.335938 L 25 22.740234 z M 14.296875 33.8125 L 13.609375 34.0625 L 13.609375 34.796875 L 14.296875 34.546875 L 14.296875 33.8125 z M 16.201172 33.958984 C 15.829219 33.962594 15.353016 34.356797 15.134766 34.529297 C 14.831766 34.768297 14.593891 35.012953 14.462891 35.376953 C 14.404891 35.537953 14.321453 35.980062 14.564453 36.039062 C 14.979453 36.138062 15.487594 35.802984 15.808594 35.583984 C 16.292594 35.253984 16.691391 34.734375 16.525391 34.109375 C 16.438391 34.001125 16.325156 33.957781 16.201172 33.958984 z M 15.873047 34.298828 C 15.912105 34.296318 15.945453 34.308344 15.970703 34.339844 C 16.130703 34.939844 15.734812 35.396828 15.257812 35.673828 C 14.880812 35.892828 14.951625 35.489172 15.015625 35.201172 C 15.045375 35.069047 15.599637 34.316396 15.873047 34.298828 z M 9.6113281 34.320312 L 9.6464844 34.345703 C 9.6350823 34.336786 9.6226093 34.32936 9.6113281 34.320312 z M 40.388672 34.320312 C 40.377391 34.32936 40.364918 34.336786 40.353516 34.345703 L 40.388672 34.320312 z M 18.505859 35.078125 C 17.26582 35.131842 16.402062 35.799719 15.617188 36.371094 C 15.282187 36.615094 15.708 36.664375 16 36.609375 C 17.172 36.390375 18.37525 36.46875 19.03125 37.21875 C 19.09925 37.29575 19.186125 37.507047 19.203125 37.623047 C 19.219125 37.732047 19.36975 37.696547 19.34375 37.560547 C 19.078622 36.209041 17.896943 35.874571 16.757812 36.027344 C 17.393331 35.592164 18.250072 35.175547 19.140625 35.732422 C 19.265625 35.810422 19.309047 35.285672 19.123047 35.138672 L 19.0625 35.09375 C 18.869125 35.07425 18.683008 35.070451 18.505859 35.078125 z M 35.037109 36.939453 C 35.442261 37.12839 35.881083 37.333193 36.201172 37.466797 C 35.763967 37.669111 35.347098 37.884427 34.945312 38.113281 C 34.680524 37.983293 34.414252 37.857713 34.125 37.71875 C 34.118554 37.715648 34.113835 37.714013 34.107422 37.710938 C 34.445814 37.473977 34.753341 37.214759 35.037109 36.939453 z M 36.619141 37.654297 C 37.064423 37.841906 37.554812 38.068583 38.054688 38.300781 C 37.153541 38.682894 36.601562 39.011719 36.601562 39.011719 C 36.601562 39.011719 36.328563 38.905641 35.976562 38.681641 C 35.754184 38.539705 35.541272 38.430141 35.326172 38.316406 C 35.748331 38.078328 36.178782 37.856219 36.619141 37.654297 z M 41.423828 37.84375 C 41.657594 37.836859 41.891375 37.8415 42.125 37.859375 C 42.909 37.919375 44.234375 38.28125 44.234375 38.28125 C 44.234375 38.28125 44.08 39.234375 42.375 39.234375 C 41.615671 39.234375 40.562856 38.754284 39.34375 38.179688 C 40.025862 37.989369 40.724559 37.864362 41.423828 37.84375 z M 33.779297 37.927734 C 34.02843 38.028677 34.307062 38.161898 34.601562 38.310547 C 33.277819 39.106261 32.100285 40.05719 30.84375 41.201172 C 30.73475 41.201172 30.593875 41.076047 30.296875 40.998047 C 29.120839 40.635842 28.259566 40.392042 27.298828 40.109375 C 27.631476 39.807823 27.97895 39.46718 28.212891 39.076172 C 28.625763 39.117066 29.039152 39.157928 29.451172 39.162109 C 31.085008 39.178845 32.570096 38.687309 33.779297 37.927734 z M 7.7402344 38.050781 C 9.0094258 38.046245 10.228611 38.340131 11.523438 38.908203 C 10.287433 39.243758 9.0109104 39.463188 7.953125 39.337891 C 6.442125 39.158891 6.046875 38.140625 6.046875 38.140625 C 6.046875 38.140625 6.3290937 38.152656 6.8710938 38.097656 C 7.1642187 38.067531 7.4539004 38.051805 7.7402344 38.050781 z M 14.580078 38.310547 C 15.017184 38.552225 15.448034 38.805167 15.867188 39.076172 C 15.653095 39.129775 15.442354 39.192349 15.238281 39.273438 C 14.932899 39.394522 14.626817 39.517735 14.332031 39.664062 C 14.119768 39.538866 13.905894 39.417463 13.689453 39.298828 C 13.382138 39.126239 13.085798 38.976171 12.792969 38.837891 C 13.346632 38.674361 13.924663 38.502928 14.580078 38.310547 z M 18.998047 38.962891 C 20.686172 38.941391 22.289 39.202875 23.3125 39.546875 C 24.145683 39.82663 25.187945 40.126902 26.257812 40.425781 C 25.804525 40.856693 25.361015 41.262115 24.9375 41.666016 C 23.528261 40.475543 21.900365 39.837217 19.970703 40.201172 C 19.558703 40.279172 18.955078 40.541016 18.955078 40.541016 C 18.955078 40.541016 18.593719 40.247938 18.386719 40.085938 C 17.920912 39.719353 17.485067 39.417077 17.058594 39.138672 C 17.700473 39.036714 18.353574 38.971099 18.998047 38.962891 z M 24.75 42.300781 C 25.46038 42.996063 26.013859 43.76203 26.191406 44.4375 C 26.292406 44.8215 26.261625 45.151859 26.140625 45.505859 C 25.896625 46.221859 25.507422 46.288469 25.107422 47.105469 C 25.024422 46.888469 25.078141 47.092453 24.744141 46.314453 C 24.407141 45.530453 23.968641 45.182688 23.806641 44.304688 C 23.680369 43.623641 24.135554 42.933719 24.75 42.300781 z" />
    </g>
</svg>