<?xml version="1.0" standalone="no"?>
<!DOCTYPE svg PUBLIC "-//W3C//DTD SVG 20010904//EN"
 "http://www.w3.org/TR/2001/REC-SVG-20010904/DTD/svg10.dtd">
<svg version="1.0" xmlns="http://www.w3.org/2000/svg"
 width="200.000000pt" height="150.000000pt" viewBox="0 0 200.000000 150.000000"
 preserveAspectRatio="xMidYMid meet">

<g transform="translate(0.000000,150.000000) scale(0.100000,-0.100000)"
fill="#000000" stroke="none">
<path d="M1114 1131 c-47 -11 -82 -26 -107 -46 -20 -17 -52 -37 -72 -44 -33
-12 -38 -11 -67 14 -146 123 -359 107 -499 -37 -78 -80 -93 -114 -94 -218 0
-131 18 -197 75 -266 124 -151 268 -203 468 -170 84 14 100 20 168 67 l75 52
27 -22 c15 -12 61 -38 102 -59 69 -34 82 -37 160 -37 111 0 171 28 261 122 64
66 66 70 89 166 27 109 24 135 -28 265 -20 51 -35 72 -80 108 -140 114 -293
148 -478 105z m230 -65 c32 -8 70 -23 85 -34 15 -10 44 -28 66 -40 57 -29 73
-50 106 -142 34 -97 35 -117 9 -203 -24 -78 -88 -154 -155 -187 -49 -24 -140
-29 -189 -10 -34 12 -86 48 -86 59 0 3 31 5 68 3 104 -6 160 27 201 117 17 40
18 48 6 88 -24 79 -61 121 -121 139 -50 14 -56 14 -96 -4 -55 -24 -99 -70
-128 -132 -13 -28 -29 -50 -36 -50 -7 0 -19 -19 -27 -42 -14 -42 -69 -106
-133 -155 -22 -16 -56 -27 -113 -35 -138 -20 -230 6 -338 96 -40 34 -97 142
-107 203 -8 51 29 177 67 226 76 100 269 128 362 53 39 -32 28 -41 -33 -26
-63 15 -119 1 -166 -40 -45 -40 -59 -79 -54 -144 6 -68 43 -120 105 -148 39
-17 51 -18 92 -8 61 15 95 49 141 140 21 41 52 88 69 104 17 17 31 35 31 41 0
11 64 68 110 98 29 19 129 45 175 46 17 0 56 -6 89 -13z m-614 -156 c16 0 41
-11 57 -24 l28 -24 -27 -56 c-43 -87 -97 -107 -148 -56 -47 47 -7 182 48 164
8 -2 27 -4 42 -4z m624 -181 c51 -124 -58 -184 -182 -101 -11 8 -9 19 11 58
29 57 52 80 87 87 52 10 64 3 84 -44z"/>
</g>
</svg>
