<?xml version="1.0" standalone="no"?>
<!DOCTYPE svg PUBLIC "-//W3C//DTD SVG 20010904//EN"
 "http://www.w3.org/TR/2001/REC-SVG-20010904/DTD/svg10.dtd">
<svg version="1.0" xmlns="http://www.w3.org/2000/svg"
 width="200.000000pt" height="150.000000pt" viewBox="0 0 200.000000 150.000000"
 preserveAspectRatio="xMidYMid meet">

<g transform="translate(0.000000,150.000000) scale(0.100000,-0.100000)"
fill="#000000" stroke="none">
<path d="M908 1409 c-31 -17 -22 -61 20 -102 51 -49 77 -48 130 6 46 47 51 66
24 90 -23 21 -42 21 -67 3 -17 -12 -23 -12 -47 0 -32 16 -37 17 -60 3z"/>
<path d="M663 1345 c-43 -31 -30 -53 123 -206 145 -145 147 -147 140 -183 -7
-37 -37 -66 -70 -66 -11 0 -64 44 -125 105 -177 175 -328 315 -341 315 -39 0
-76 -50 -59 -81 4 -9 43 -49 86 -90 42 -41 175 -172 295 -291 161 -161 218
-224 218 -241 0 -32 -33 -60 -71 -60 -26 0 -59 28 -238 206 -195 195 -209 207
-244 207 -30 0 -40 -5 -48 -24 -16 -35 -4 -67 37 -98 32 -24 297 -283 395
-385 20 -21 57 -55 83 -76 62 -52 86 -100 86 -178 0 -77 22 -119 62 -119 50 0
68 30 68 115 0 47 6 86 14 103 8 15 81 91 163 169 81 78 168 162 193 187 163
164 230 237 230 254 0 25 -31 52 -60 52 -16 0 -69 -44 -174 -144 -256 -243
-283 -266 -316 -266 -19 0 -34 8 -44 22 -28 39 -20 63 35 110 29 24 72 63 96
88 25 25 139 139 254 255 214 214 231 239 197 273 -35 35 -83 6 -236 -141
-241 -234 -269 -257 -301 -257 -33 0 -61 30 -61 65 0 20 143 168 258 267 23
20 42 45 42 55 0 34 -29 63 -62 63 -25 0 -49 -19 -143 -110 -140 -137 -150
-139 -248 -55 -36 30 -87 79 -113 109 -55 61 -87 75 -121 51z"/>
</g>
</svg>
