<?xml version="1.0" standalone="no"?>
<!DOCTYPE svg PUBLIC "-//W3C//DTD SVG 20010904//EN"
 "http://www.w3.org/TR/2001/REC-SVG-20010904/DTD/svg10.dtd">
<svg version="1.0" xmlns="http://www.w3.org/2000/svg"
 width="200.000000pt" height="150.000000pt" viewBox="0 0 200.000000 150.000000"
 preserveAspectRatio="xMidYMid meet">

<g transform="translate(0.000000,150.000000) scale(0.100000,-0.100000)"
fill="#000000" stroke="none">
<path d="M938 1252 c-26 -20 -47 -42 -48 -47 0 -6 -22 -33 -50 -60 -34 -34
-51 -44 -54 -34 -2 8 -10 30 -16 51 -8 26 -21 41 -45 52 -56 27 -74 12 -180
-149 -124 -189 -199 -290 -235 -316 -33 -25 -53 -67 -48 -101 4 -31 60 -58
123 -58 51 0 95 -20 95 -43 0 -6 -11 -20 -24 -32 -69 -57 -32 -100 146 -169
68 -27 149 -62 181 -78 32 -16 91 -37 132 -47 40 -10 78 -22 84 -26 7 -3 46 9
89 29 139 63 390 166 405 166 8 0 26 9 41 21 30 24 38 89 11 89 -8 0 -15 8
-15 18 0 10 -5 23 -11 29 -16 16 50 43 125 50 122 11 127 67 20 186 -35 40
-83 99 -106 132 -23 33 -69 97 -102 142 -34 44 -68 95 -78 111 -25 46 -63 68
-93 54 -31 -14 -65 -68 -65 -104 0 -39 -14 -41 -46 -6 -16 17 -41 42 -56 56
-16 15 -28 34 -28 44 0 10 -4 18 -8 18 -5 0 -22 13 -38 30 -16 16 -36 29 -44
29 -8 0 -36 -17 -62 -37z m185 -223 c26 -34 47 -70 47 -79 0 -10 29 -60 64
-112 35 -52 77 -124 94 -160 16 -36 48 -93 71 -127 22 -34 41 -66 41 -71 0
-13 -23 -24 -130 -60 -52 -18 -129 -48 -170 -68 -41 -20 -79 -37 -84 -37 -6 0
-10 115 -12 280 -2 338 4 495 20 495 7 0 33 -28 59 -61z m-181 -66 c1 -65 1
-217 0 -338 -1 -121 -2 -234 -2 -252 -1 -56 -55 -53 -165 8 -27 15 -81 40
-120 55 -109 42 -109 42 -72 125 17 39 47 89 67 112 20 23 48 65 62 92 37 75
67 125 93 159 13 17 24 36 25 41 5 25 77 115 93 115 15 0 17 -13 19 -117z
m-225 85 c14 -19 9 -85 -9 -105 -8 -10 -18 -30 -21 -44 -4 -14 -19 -41 -34
-61 -16 -19 -50 -69 -78 -111 -52 -81 -65 -88 -119 -67 -14 5 -30 18 -36 30
-14 27 -2 49 69 125 73 79 151 188 151 213 0 10 3 22 7 25 11 12 60 8 70 -5z
m629 -2 c1 0 22 -32 47 -71 25 -38 55 -75 66 -82 28 -17 121 -163 121 -190 0
-28 -45 -53 -95 -53 -35 0 -37 2 -67 68 -29 64 -93 166 -139 223 -17 22 -19
30 -10 47 6 11 11 30 11 41 0 23 17 31 45 24 11 -3 20 -6 21 -7z"/>
</g>
</svg>
