<?xml version="1.0" standalone="no"?>
<!DOCTYPE svg PUBLIC "-//W3C//DTD SVG 20010904//EN"
 "http://www.w3.org/TR/2001/REC-SVG-20010904/DTD/svg10.dtd">
<svg version="1.0" xmlns="http://www.w3.org/2000/svg"
 width="200.000000pt" height="150.000000pt" viewBox="0 0 200.000000 150.000000"
 preserveAspectRatio="xMidYMid meet">

<g transform="translate(0.000000,150.000000) scale(0.100000,-0.100000)"
fill="#000000" stroke="none">
<path d="M835 1360 c-16 -4 -46 -11 -66 -14 -84 -15 -300 -189 -379 -308 -52
-78 -53 -120 -4 -146 30 -16 53 3 99 82 41 70 186 211 253 245 66 34 143 51
226 51 136 0 218 -31 351 -130 44 -33 90 -60 102 -60 28 0 57 42 48 70 -11 35
-116 111 -225 164 l-105 51 -135 2 c-74 1 -148 -2 -165 -7z"/>
<path d="M905 1100 c-101 -18 -254 -90 -319 -150 -23 -21 -59 -65 -81 -97 -22
-32 -42 -60 -46 -63 -14 -12 -15 -37 -2 -62 17 -36 62 -38 95 -5 93 93 243
121 365 67 54 -24 138 -108 163 -163 23 -49 25 -128 7 -202 -23 -91 -54 -132
-137 -178 -59 -33 -69 -50 -50 -85 19 -32 54 -37 90 -13 14 10 39 23 55 30 35
14 120 117 147 179 29 64 28 185 -1 282 -17 58 -32 86 -66 121 -52 55 -108
100 -154 124 -32 16 -142 38 -188 37 -13 0 -23 4 -23 8 0 15 25 28 95 50 173
55 385 7 512 -118 94 -91 149 -175 154 -233 4 -46 24 -69 57 -63 44 8 55 24
49 74 -8 74 -45 158 -97 215 -27 30 -53 63 -59 74 -6 11 -39 36 -73 57 -35 20
-74 44 -88 53 -82 52 -285 83 -405 61z"/>
</g>
</svg>
