<?xml version="1.0" standalone="no"?>
<!DOCTYPE svg PUBLIC "-//W3C//DTD SVG 20010904//EN"
 "http://www.w3.org/TR/2001/REC-SVG-20010904/DTD/svg10.dtd">
<svg version="1.0" xmlns="http://www.w3.org/2000/svg"
 width="200.000000pt" height="150.000000pt" viewBox="0 0 200.000000 150.000000"
 preserveAspectRatio="xMidYMid meet">

<g transform="translate(0.000000,150.000000) scale(0.100000,-0.100000)"
fill="#000000" stroke="none">
<path d="M317 1043 c-59 -64 -198 -234 -219 -269 l-19 -33 25 -38 c40 -63 225
-267 252 -279 60 -25 85 -6 278 214 74 84 74 120 -2 211 -193 235 -189 231
-247 231 -25 0 -41 -9 -68 -37z m125 -104 c18 -23 59 -72 91 -109 31 -38 57
-77 57 -87 0 -16 -50 -80 -147 -185 -18 -21 -41 -38 -50 -38 -9 0 -32 19 -52
42 -20 22 -62 70 -93 106 -32 35 -58 70 -58 77 0 7 26 42 58 78 31 35 75 85
98 111 22 25 45 46 52 46 6 0 26 -18 44 -41z"/>
<path d="M1458 965 c-117 -132 -158 -189 -158 -220 0 -12 17 -44 38 -71 21
-27 50 -69 63 -94 13 -24 35 -50 48 -56 13 -7 44 -33 70 -58 40 -39 53 -46 87
-46 44 0 57 11 180 155 150 176 150 155 -1 345 -64 79 -121 148 -128 152 -7 4
-31 8 -54 8 -41 0 -45 -3 -145 -115z m247 -85 c118 -143 114 -132 69 -187 -86
-105 -137 -158 -157 -166 -18 -7 -34 5 -109 84 -119 125 -119 128 6 274 32 39
64 73 70 77 27 18 50 3 121 -82z"/>
<path d="M634 1036 c-3 -8 -4 -25 -2 -38 l3 -23 335 -3 c184 -1 345 0 358 3
17 4 22 12 22 40 l0 35 -355 0 c-299 0 -357 -2 -361 -14z"/>
<path d="M801 776 c-7 -8 -11 -25 -9 -38 l3 -23 187 1 c198 0 222 5 216 48 -3
20 -9 21 -194 24 -158 2 -193 0 -203 -12z"/>
<path d="M650 510 c-12 -12 -20 -29 -18 -38 3 -15 27 -17 243 -20 318 -4 441
4 467 30 41 41 29 43 -330 46 -334 2 -342 2 -362 -18z"/>
</g>
</svg>
